<?xml version="1.0" standalone="no"?>
<!DOCTYPE svg PUBLIC "-//W3C//DTD SVG 1.1//EN" "http://www.w3.org/Graphics/SVG/1.1/DTD/svg11.dtd" >
<svg>
<metadata>
Created by FontForge 20090914 at Sat Sep  8 07:45:34 2012
 By www-data
&#194;&#169;2011 Type light 3.0 user
</metadata>
<defs>
<font id="Cubos-Regular" horiz-adv-x="1300" >
  <font-face 
    font-family="Cubos"
    font-weight="400"
    font-stretch="normal"
    units-per-em="2048"
    panose-1="0 0 5 4 0 0 0 0 0 4"
    ascent="1565"
    descent="-483"
    x-height="1000"
    cap-height="1200"
    bbox="-2759 -646 3856 1600"
    underline-thickness="109"
    underline-position="-167"
    unicode-range="U+0020-U+20AC"
  />
<missing-glyph horiz-adv-x="1240" 
d="M100 -360v1804h1026v-1804h-1026zM217 -248h795v1577h-795v-1577z" />
    <glyph glyph-name=".notdef" horiz-adv-x="1240" 
d="M100 -360v1804h1026v-1804h-1026zM217 -248h795v1577h-795v-1577z" />
    <glyph glyph-name="space" unicode=" " horiz-adv-x="800" 
 />
    <glyph glyph-name="exclam" unicode="!" horiz-adv-x="200" 
d="M0 1200h100v-1000h-100v1000zM0 100h100v-100h-100v100z" />
    <glyph glyph-name="quotedbl" unicode="&#x22;" horiz-adv-x="600" 
d="M0 1200h200v-200h-200v200zM300 1200h200v-200h-200v200z" />
    <glyph glyph-name="numbersign" unicode="#" 
d="M300 1200h100v-1200h-100v1200zM800 1200h100v-1200h-100v1200zM0 900h1200v-100h-1200v100zM0 300v0v0zM0 400h1200v-100h-1200v100z" />
    <glyph glyph-name="dollar" unicode="$" 
d="M0 1000h1200v-100h-1200v100zM0 900h100v-400l-100 100v300zM1100 500l100 -100v-400h-100v500zM0 0h1100v0h-1100zM0 100h1100v-100h-1100v100zM1200 500v-100l-1200 100v100zM553 1198h100v-1400h-100v1400z" />
    <glyph glyph-name="quotesingle" unicode="'" horiz-adv-x="300" 
d="M0 1200h200v-200h-200v200z" />
    <glyph glyph-name="parenleft" unicode="(" horiz-adv-x="500" 
d="M0 1200h400v-100h-400v100zM0 1100h100v-1100h-100v1100zM100 100h300v-100h-300v100z" />
    <glyph glyph-name="parenright" unicode=")" horiz-adv-x="500" 
d="M0 1200h400v-100h-400v100zM300 1100h100v-1100h-100v1100zM0 100h300v-100h-300v100z" />
    <glyph glyph-name="plus" unicode="+" horiz-adv-x="900" 
d="M351 894h100v-800h-100v800zM800 500h-800v100h800v-100z" />
    <glyph glyph-name="comma" unicode="," horiz-adv-x="300" 
d="M0 200v0v0zM0 200h200v-200h-200v200zM0 0h200l-100 -100l-100 -100v200z" />
    <glyph glyph-name="hyphen" unicode="-" horiz-adv-x="900" 
d="M0 600h600v-100h-600v100zM600 600h200v-100h-200v100z" />
    <glyph glyph-name="period" unicode="." horiz-adv-x="300" 
d="M0 200h200v-200h-200v200z" />
    <glyph glyph-name="slash" unicode="/" 
d="M1048 1196l152 4l-1045 -1200h-155z" />
    <glyph glyph-name="zero" unicode="0" 
d="M0 1000h1200v-100h-1200v100zM1100 900h100v-900h-100v900zM0 100h1100v-100h-1100v100zM0 900h100v-800h-100v800zM956 902l144 -2l-844 -799l-156 -1z" />
    <glyph glyph-name="one" unicode="1" horiz-adv-x="600" 
d="M0 1000h400v-100h-400v100zM400 1000h100v-1000h-100v1000z" />
    <glyph glyph-name="two" unicode="2" 
d="M1200 900h-1200v100h1200v-100zM1199 672l-100 -100l1 328h100zM100 0h-100l2 330l100 100zM100 0h1100h-1100zM1200 0h-1100v100h1100v-100zM1199 672v-100l-1197 -242v100z" />
    <glyph glyph-name="three" unicode="3" 
d="M0 1000h1200v-100h-1200v100zM1100 900h100v-900h-100v900zM0 100h1100v-100h-1100v100zM300 600h800v-100h-800v100z" />
    <glyph glyph-name="four" unicode="4" 
d="M0 1000h100v-400h-100v400zM0 600h1200v-100h-1200v100zM1100 1000h100v-1000h-100v1000z" />
    <glyph glyph-name="five" unicode="5" 
d="M0 1000h1200v-100h-1200v100zM0 900h100l1 -328l-100 100zM1098 430l100 -100l2 -330h-100zM0 0h1100v0h-1100zM0 100h1100v-100h-1100v100zM1198 430v-100l-1197 242v100z" />
    <glyph glyph-name="six" unicode="6" 
d="M1200 900h-1200v100h1200v-100zM100 0h-100v900h100v-900zM1200 0h-1100v100h1100v-100zM1200 100h-100v200l100 63v-263zM1200 363l-100 -63l-1000 300v100z" />
    <glyph glyph-name="seven" unicode="7" 
d="M0 1000h1200v-100h-1200v100zM1100 900h100v-900h-100v900z" />
    <glyph glyph-name="eight" unicode="8" 
d="M0 1000h100v-1000h-100v1000zM100 1000h1100v-100h-1100v100zM1100 900h100v-900h-100v900zM100 100h1000v-100h-1000v100zM100 600h1000v-100h-1000v100z" />
    <glyph glyph-name="nine" unicode="9" 
d="M0 100h1200v-100h-1200v100zM1100 1000h100v-900h-100v900zM0 1000h1100v-100h-1100v100zM0 900h100v-200l-100 -63v263zM0 637l100 63l1000 -300v-100z" />
    <glyph glyph-name="colon" unicode=":" horiz-adv-x="300" 
d="M0 200h200v-200h-200v200zM0 500h200v-200h-200v200z" />
    <glyph glyph-name="semicolon" unicode=";" horiz-adv-x="300" 
d="M0 200h200v-200l-200 -200v400zM0 500h200v-200h-200v200z" />
    <glyph glyph-name="equal" unicode="=" horiz-adv-x="900" 
d="M0 700h600v-100h-600v100zM600 700h200v-100h-200v100zM0 400h600v-100h-600v100zM600 400h200v-100h-200v100z" />
    <glyph glyph-name="question" unicode="?" 
d="M1200 900h-1200v100h1200v-100zM1200 600l-100 -100v400h100v-300zM100 200h-100v200l100 100v-300zM1200 600v-100l-1200 -100v100zM0 100h100v-100h-100v100z" />
    <glyph glyph-name="at" unicode="@" 
d="M100 100h1100v-100h-1100v100zM0 1000h100v-1000h-100v1000zM100 1000h1100v-100h-1100v100zM1100 900h100v-700h-100v700zM200 300h900v-100h-900v100zM400 800h100l-200 -500h-100zM500 800h500v-100h-500v100zM900 700h100v-400h-100v400zM200 800h300v-100h-300v100z
" />
    <glyph glyph-name="A" unicode="A" 
d="M0 1000h1200v-100h-1200v100zM1100 900h100v-900h-100v900zM0 100h1100v-100h-1100v100zM0 363l100 -63v-200h-100v263zM747 902l153 -2l-800 -600l-100 63z" />
    <glyph glyph-name="B" unicode="B" 
d="M0 1200h100v-1200h-100v1200zM100 100h1100v-100h-1100v100zM1100 1000h100v-900h-100v900zM100 1000h1000v-100h-1000v100z" />
    <glyph glyph-name="C" unicode="C" 
d="M0 1000h1200v-100h-1200v100zM0 900h100v-900h-100v900zM100 100h1100v-100h-1100v100z" />
    <glyph glyph-name="D" unicode="D" 
d="M1100 1200h100v-1200h-100v1200zM0 100h1100v-100h-1100v100zM-2759 1600v0v0zM0 1000h100v-900h-100v900zM100 1000h1000v-100h-1000v100z" />
    <glyph glyph-name="E" unicode="E" 
d="M1200 0h-1200v100h1200v-100zM100 100h-100v900h100v-900zM1200 900h-1100v100h1100v-100zM1200 637l-100 63v200h100v-263zM453 98l-153 2l800 600l100 -63z" />
    <glyph glyph-name="F" unicode="F" 
d="M0 1000h100v-1200h-100v1200zM100 1000h1100v-100h-1100v100zM100 100h1100v-100h-1100v100z" />
    <glyph glyph-name="G" unicode="G" 
d="M1100 1000h100v-1100h-100v1100zM0 1000h1100v-100h-1100v100zM0 900h100v-300l-100 -63v363zM0 537l100 63l1000 -400v-100zM0 -100h1200v-100h-1200v100z" />
    <glyph glyph-name="H" unicode="H" 
d="M0 1200h100v-1200h-100v1200zM100 1000h1100v-100h-1100v100zM1100 900h100v-900h-100v900z" />
    <glyph glyph-name="I" unicode="I" horiz-adv-x="200" 
d="M0 1000h100v-1000h-100v1000zM0 1200h100v-100h-100v100z" />
    <glyph glyph-name="J" unicode="J" horiz-adv-x="200" 
d="M0 1000h100v-1000l-100 7v993zM0 1200h100v-100h-100v100zM0 61l100 -61l-369 -464h-135z" />
    <glyph glyph-name="K" unicode="K" 
d="M0 1200h100v-1200h-100v1200zM100 1000h1100v-100h-1100v100zM87 882l1113 -882h-150l-1050 800z" />
    <glyph glyph-name="L" unicode="L" horiz-adv-x="200" 
d="M0 1200h100v-1200h-100v1200z" />
    <glyph glyph-name="M" unicode="M" horiz-adv-x="2500" 
d="M2400 0h-100v1000h100v-1000zM2299 872l-1099 -872l2 118l1098 882zM1200 0h-100v1000h100v-1000zM1099 872l-960 -875l-139 3l1100 1000z" />
    <glyph glyph-name="N" unicode="N" 
d="M0 1000h100v-1000h-100v1000zM100 1000h1100v-100h-1100v100zM1100 900h100v-900h-100v900z" />
    <glyph glyph-name="O" unicode="O" 
d="M0 1000h100v-1000h-100v1000zM100 1000h1100v-100h-1100v100zM1100 900h100v-900h-100v900zM100 100h1000v-100h-1000v100z" />
    <glyph glyph-name="P" unicode="P" 
d="M0 1000h100v-1200h-100v1200zM100 1000h1100v-100h-1100v100zM3856 -646v0v0zM1100 900h100v-900h-100v900zM100 100h1000v-100h-1000v100z" />
    <glyph glyph-name="Q" unicode="Q" 
d="M0 1000h1200v-100h-1200v100zM1100 900h100v-900h-100v900zM0 100h1100v-100h-1100v100zM0 900h100v-800h-100v800zM1100 0h100v-200h-100v200z" />
    <glyph glyph-name="R" unicode="R" 
d="M0 1000h100v-1000h-100v1000zM100 1000h1100v-100h-1100v100z" />
    <glyph glyph-name="S" unicode="S" 
d="M0 1000h1200v-100h-1200v100zM0 900h100l1 -328l-100 100zM1098 430l100 -100l2 -330h-100zM0 0h1100v0h-1100zM0 100h1100v-100h-1100v100zM1198 430v-100l-1197 242v100z" />
    <glyph glyph-name="T" unicode="T" 
d="M0 1000h100v-1000h-100v1000zM0 1200h100v-100h-100v100zM0 1100h100v-100h-100v100zM100 1000h1100v-100h-1100v100zM100 100h1100v-100h-1100v100z" />
    <glyph glyph-name="U" unicode="U" 
d="M0 1000h100v-1000h-100v1000zM100 100h1100v-100h-1100v100zM1100 1000h100v-900h-100v900z" />
    <glyph glyph-name="V" unicode="V" horiz-adv-x="1400" 
d="M0 1000h100v-1000h-100v1000zM101 128l1043 875h148l-1192 -1003z" />
    <glyph glyph-name="W" unicode="W" horiz-adv-x="2500" 
d="M0 1000h100v-1000h-100v1000zM101 128l1099 872l-2 -118l-1098 -882zM1200 1000h100v-1000h-100v1000zM1301 128l960 875l139 -3l-1100 -1000z" />
    <glyph glyph-name="X" unicode="X" 
d="M0 1000l155 3l1045 -1003h-143zM1057 1003l143 -3l-1045 -1000h-155z" />
    <glyph glyph-name="Y" unicode="Y" 
d="M0 1000h100l1 -919l-101 -81v1000zM1050 1003l150 -3l-1658 -1478h-141z" />
    <glyph glyph-name="Z" unicode="Z" 
d="M0 1000h1200v-100h-1200v100zM0 100h1200v-100h-1200v100zM1050 902l150 -2l-1038 -799l-162 -1z" />
    <glyph glyph-name="underscore" unicode="_" 
d="M0 100h1200v-100h-1200v100z" />
    <glyph glyph-name="a" unicode="a" 
d="M0 1000h1200v-100h-1200v100zM1100 900h100v-900h-100v900zM0 100h1100v-100h-1100v100zM0 363l100 -63v-200h-100v263zM747 902l153 -2l-800 -600l-100 63z" />
    <glyph glyph-name="b" unicode="b" 
d="M0 1200h100v-1200h-100v1200zM100 100h1100v-100h-1100v100zM1100 1000h100v-900h-100v900zM100 1000h1000v-100h-1000v100z" />
    <glyph glyph-name="c" unicode="c" 
d="M0 1000h1200v-100h-1200v100zM0 900h100v-900h-100v900zM100 100h1100v-100h-1100v100z" />
    <glyph glyph-name="d" unicode="d" 
d="M1100 1200h100v-1200h-100v1200zM0 100h1100v-100h-1100v100zM-2759 1600v0v0zM0 1000h100v-900h-100v900zM100 1000h1000v-100h-1000v100z" />
    <glyph glyph-name="e" unicode="e" 
d="M1200 0h-1200v100h1200v-100zM100 100h-100v900h100v-900zM1200 900h-1100v100h1100v-100zM1200 637l-100 63v200h100v-263zM453 98l-153 2l800 600l100 -63z" />
    <glyph glyph-name="f" unicode="f" 
d="M0 1000h100v-1200h-100v1200zM100 1000h1100v-100h-1100v100zM100 100h1100v-100h-1100v100z" />
    <glyph glyph-name="g" unicode="g" 
d="M1100 1000h100v-1100h-100v1100zM0 1000h1100v-100h-1100v100zM0 900h100v-300l-100 -63v363zM0 537l100 63l1000 -400v-100zM0 -100h1200v-100h-1200v100z" />
    <glyph glyph-name="h" unicode="h" 
d="M0 1200h100v-1200h-100v1200zM100 1000h1100v-100h-1100v100zM1100 900h100v-900h-100v900z" />
    <glyph glyph-name="i" unicode="i" horiz-adv-x="200" 
d="M0 1000h100v-1000h-100v1000zM0 1200h100v-100h-100v100z" />
    <glyph glyph-name="j" unicode="j" horiz-adv-x="200" 
d="M0 1000h100v-1000l-100 7v993zM0 1200h100v-100h-100v100zM0 61l100 -61l-369 -464h-135z" />
    <glyph glyph-name="k" unicode="k" 
d="M0 1200h100v-1200h-100v1200zM100 1000h1100v-100h-1100v100zM87 882l1113 -882h-150l-1050 800z" />
    <glyph glyph-name="l" unicode="l" horiz-adv-x="200" 
d="M0 1200h100v-1200h-100v1200z" />
    <glyph glyph-name="m" unicode="m" horiz-adv-x="2500" 
d="M2400 0h-100v1000h100v-1000zM2299 872l-1099 -872l2 118l1098 882zM1200 0h-100v1000h100v-1000zM1099 872l-960 -875l-139 3l1100 1000z" />
    <glyph glyph-name="n" unicode="n" 
d="M0 1000h100v-1000h-100v1000zM100 1000h1100v-100h-1100v100zM1100 900h100v-900h-100v900z" />
    <glyph glyph-name="o" unicode="o" 
d="M0 1000h100v-1000h-100v1000zM100 1000h1100v-100h-1100v100zM1100 900h100v-900h-100v900zM100 100h1000v-100h-1000v100z" />
    <glyph glyph-name="p" unicode="p" 
d="M0 1000h100v-1200h-100v1200zM100 1000h1100v-100h-1100v100zM3856 -646v0v0zM1100 900h100v-900h-100v900zM100 100h1000v-100h-1000v100z" />
    <glyph glyph-name="q" unicode="q" 
d="M0 1000h1200v-100h-1200v100zM1100 900h100v-900h-100v900zM0 100h1100v-100h-1100v100zM0 900h100v-800h-100v800zM1100 0h100v-200h-100v200z" />
    <glyph glyph-name="r" unicode="r" 
d="M0 1000h100v-1000h-100v1000zM100 1000h1100v-100h-1100v100z" />
    <glyph glyph-name="s" unicode="s" 
d="M0 1000h1200v-100h-1200v100zM0 900h100l1 -328l-100 100zM1098 430l100 -100l2 -330h-100zM0 0h1100v0h-1100zM0 100h1100v-100h-1100v100zM1198 430v-100l-1197 242v100z" />
    <glyph glyph-name="t" unicode="t" 
d="M0 1000h100v-1000h-100v1000zM0 1200h100v-100h-100v100zM0 1100h100v-100h-100v100zM100 1000h1100v-100h-1100v100zM100 100h1100v-100h-1100v100z" />
    <glyph glyph-name="u" unicode="u" 
d="M0 1000h100v-1000h-100v1000zM100 100h1100v-100h-1100v100zM1100 1000h100v-900h-100v900z" />
    <glyph glyph-name="v" unicode="v" horiz-adv-x="1400" 
d="M0 1000h100v-1000h-100v1000zM101 128l1043 875h148l-1192 -1003z" />
    <glyph glyph-name="w" unicode="w" horiz-adv-x="2500" 
d="M0 1000h100v-1000h-100v1000zM101 128l1099 872l-2 -118l-1098 -882zM1200 1000h100v-1000h-100v1000zM1301 128l960 875l139 -3l-1100 -1000z" />
    <glyph glyph-name="x" unicode="x" 
d="M0 1000l155 3l1045 -1003h-143zM1057 1003l143 -3l-1045 -1000h-155z" />
    <glyph glyph-name="y" unicode="y" 
d="M0 1000h100l1 -919l-101 -81v1000zM1050 1003l150 -3l-1658 -1478h-141z" />
    <glyph glyph-name="z" unicode="z" 
d="M0 1000h1200v-100h-1200v100zM0 100h1200v-100h-1200v100zM1050 902l150 -2l-1038 -799l-162 -1z" />
    <glyph glyph-name="braceleft" unicode="{" horiz-adv-x="600" 
d="M500 1200v-100h-400v100h400zM200 1100v-1100h-100v1100h100zM500 100v-100h-300v100h300zM100 700v-100h-100v100h100z" />
    <glyph glyph-name="bar" unicode="|" horiz-adv-x="200" 
d="M0 1200h100v-1200h-100v1200z" />
    <glyph glyph-name="braceright" unicode="}" horiz-adv-x="600" 
d="M400 1200v-100h-400v100h400zM400 1100v-1100h-100v1100h100zM300 100v-100h-300v100h300zM500 700v-100h-100v100h100z" />
    <glyph glyph-name="exclamdown" unicode="&#xa1;" horiz-adv-x="200" 
d="M0 1000h100v-100h-100v100zM0 800h100v-800h-100v800z" />
    <glyph glyph-name="cent" unicode="&#xa2;" 
d="M0 1000h1200v-100h-1200v100zM0 900h100v-900h-100v900zM100 100h1100v-100h-1100v100zM500 1200h100v-1400h-100v1400z" />
    <glyph glyph-name="sterling" unicode="&#xa3;" horiz-adv-x="1100" 
d="M437 1097l563 3v-100h-600zM400 1000h100l-400 -1000h-100zM100 100h900v-100h-900v100zM0 600h700v-100h-700v100zM0 600h700v-100h-700v100z" />
    <glyph glyph-name="yen" unicode="&#xa5;" 
d="M0 1000l148 3l512 -465l-108 -40zM1057 1003l143 -3l-554 -502l-114 40zM546 500h100v-500h-100v500zM0 600h500l200 -100h-700v100zM500 600h700v-100h-500zM0 400h1200v-100h-1200v100z" />
    <glyph glyph-name="questiondown" unicode="&#xbf;" 
d="M0 0h1200v100h-1200v-100zM0 100h100v400l-100 -100v-300zM1100 500l100 100v200h-100v-300zM1200 500v100l-1200 -100v-100zM1200 900h-100v100h100v-100z" />
    <glyph glyph-name="Agrave" unicode="&#xc0;" 
d="M0 1000h1200v-100h-1200v100zM1100 900h100v-900h-100v900zM0 100h1100v-100h-1100v100zM0 363l100 -63v-200h-100v263zM747 902l153 -2l-800 -600l-100 63zM300 1300l600 -100v-100l-600 100v100z" />
    <glyph glyph-name="Aacute" unicode="&#xc1;" 
d="M0 1000h1200v-100h-1200v100zM1100 900h100v-900h-100v900zM0 100h1100v-100h-1100v100zM0 363l100 -63v-200h-100v263zM747 902l153 -2l-800 -600l-100 63zM900 1200l-600 -100v100l600 100v-100z" />
    <glyph glyph-name="Acircumflex" unicode="&#xc2;" 
d="M0 1000h1200v-100h-1200v100zM1100 900h100v-900h-100v900zM0 100h1100v-100h-1100v100zM0 363l100 -63v-200h-100v263zM747 902l153 -2l-800 -600l-100 63zM300 1200l300 100v-100l-300 -100v100zM600 1300l300 -100v-100l-300 100v100z" />
    <glyph glyph-name="Atilde" unicode="&#xc3;" 
d="M0 1000h1200v-100h-1200v100zM1100 900h100v-900h-100v900zM0 100h1100v-100h-1100v100zM0 363l100 -63v-200h-100v263zM747 902l153 -2l-800 -600l-100 63zM300 1200l200 100v-100l-200 -100v100zM500 1300l200 -100v-100l-200 100v100zM700 1200l200 100v-100
l-200 -100v100z" />
    <glyph glyph-name="Adieresis" unicode="&#xc4;" 
d="M0 1000h1200v-100h-1200v100zM1100 900h100v-900h-100v900zM0 100h1100v-100h-1100v100zM0 363l100 -63v-200h-100v263zM747 902l153 -2l-800 -600l-100 63zM300 1200h100v-100h-100v100zM800 1200h100v-100h-100v100z" />
    <glyph glyph-name="Aring" unicode="&#xc5;" 
d="M0 1000h1200v-100h-1200v100zM1100 900h100v-900h-100v900zM0 100h1100v-100h-1100v100zM0 363l100 -63v-200h-100v263zM747 902l153 -2l-800 -600l-100 63zM460 1200h300v-100h-300v100zM660 1400h100v-200h-100v200zM460 1400h200v-100h-200v100zM460 1300h100v-100
h-100v100z" />
    <glyph glyph-name="AE" unicode="&#xc6;" horiz-adv-x="2400" 
d="M0 1000h1200v-100h-1200v100zM1100 900h100v-900h-100v900zM0 100h1100v-100h-1100v100zM0 363l100 -63v-200h-100v263zM747 902l153 -2l-800 -600l-100 63zM2300 0h-1200v100h1200v-100zM1200 100h-100v900h100v-900zM2300 900h-1100v100h1100v-100zM2300 637l-100 63
v200h100v-263zM1553 98l-153 2l800 600l100 -63z" />
    <glyph glyph-name="Ccedilla" unicode="&#xc7;" 
d="M0 1000h1200v-100h-1200v100zM0 900h100v-900h-100v900zM100 100h1100v-100h-1100v100zM500 -200h100v200h-100v-200zM600 -100h200v-100h-200v100z" />
    <glyph glyph-name="Egrave" unicode="&#xc8;" 
d="M1200 0h-1200v100h1200v-100zM100 100h-100v900h100v-900zM1200 900h-1100v100h1100v-100zM1200 637l-100 63v200h100v-263zM453 98l-153 2l800 600l100 -63zM300 1300l600 -100v-100l-600 100v100z" />
    <glyph glyph-name="Eacute" unicode="&#xc9;" 
d="M1200 0h-1200v100h1200v-100zM100 100h-100v900h100v-900zM1200 900h-1100v100h1100v-100zM1200 637l-100 63v200h100v-263zM453 98l-153 2l800 600l100 -63zM900 1200l-600 -100v100l600 100v-100z" />
    <glyph glyph-name="Ecircumflex" unicode="&#xca;" 
d="M1200 0h-1200v100h1200v-100zM100 100h-100v900h100v-900zM1200 900h-1100v100h1100v-100zM1200 637l-100 63v200h100v-263zM453 98l-153 2l800 600l100 -63zM300 1200l300 100v-100l-300 -100v100zM600 1300l300 -100v-100l-300 100v100z" />
    <glyph glyph-name="Edieresis" unicode="&#xcb;" 
d="M1200 0h-1200v100h1200v-100zM100 100h-100v900h100v-900zM1200 900h-1100v100h1100v-100zM1200 637l-100 63v200h100v-263zM453 98l-153 2l800 600l100 -63zM300 1200h100v-100h-100v100zM800 1200h100v-100h-100v100z" />
    <glyph glyph-name="Igrave" unicode="&#xcc;" horiz-adv-x="200" 
d="M0 1000h100v-1000h-100v1000zM-200 1300l600 -100v-100l-600 100v100z" />
    <glyph glyph-name="Iacute" unicode="&#xcd;" horiz-adv-x="200" 
d="M0 1000h100v-1000h-100v1000zM400 1200l-600 -100v100l600 100v-100z" />
    <glyph glyph-name="Icircumflex" unicode="&#xce;" horiz-adv-x="200" 
d="M0 1000h100v-1000h-100v1000zM-243 1197l300 100v-100l-300 -100v100zM57 1297l300 -100v-100l-300 100v100z" />
    <glyph glyph-name="Idieresis" unicode="&#xcf;" horiz-adv-x="200" 
d="M0 1000h100v-1000h-100v1000zM-100 1200h100v-100h-100v100zM100 1200h100v-100h-100v100z" />
    <glyph glyph-name="Eth" unicode="&#xd0;" horiz-adv-x="200" 
d="M0 1000h100v-1000h-100v1000zM-243 1197l300 100v-100l-300 -100v100zM57 1297l300 -100v-100l-300 100v100z" />
    <glyph glyph-name="Ntilde" unicode="&#xd1;" 
d="M0 900h100v-900h-100v900zM0 1000h1200v-100h-1200v100zM1100 900h100v-900h-100v900zM300 1200l200 100v-100l-200 -100v100zM500 1300l200 -100v-100l-200 100v100zM700 1200l200 100v-100l-200 -100v100z" />
    <glyph glyph-name="Ograve" unicode="&#xd2;" 
d="M0 1000h100v-1000h-100v1000zM100 100h1100v-100h-1100v100zM1100 1000h100v-900h-100v900zM100 1000h1000v-100h-1000v100zM300 1300l600 -100v-100l-600 100v100z" />
    <glyph glyph-name="Oacute" unicode="&#xd3;" 
d="M0 1000h100v-1000h-100v1000zM100 100h1100v-100h-1100v100zM1100 1000h100v-900h-100v900zM100 1000h1000v-100h-1000v100zM900 1200l-600 -100v100l600 100v-100z" />
    <glyph glyph-name="Ocircumflex" unicode="&#xd4;" 
d="M300 1200l300 100v-100l-300 -100v100zM600 1300l300 -100v-100l-300 100v100zM0 1000h100v-1000h-100v1000zM100 100h1100v-100h-1100v100zM1100 1000h100v-900h-100v900zM100 1000h1000v-100h-1000v100z" />
    <glyph glyph-name="Otilde" unicode="&#xd5;" 
d="M0 1000h100v-1000h-100v1000zM100 100h1100v-100h-1100v100zM1100 1000h100v-900h-100v900zM100 1000h1000v-100h-1000v100zM300 1200l200 100v-100l-200 -100v100zM500 1300l200 -100v-100l-200 100v100zM700 1200l200 100v-100l-200 -100v100z" />
    <glyph glyph-name="Odieresis" unicode="&#xd6;" 
d="M300 1200h100v-100h-100v100zM800 1200h100v-100h-100v100zM0 1000h100v-1000h-100v1000zM100 100h1100v-100h-1100v100zM1100 1000h100v-900h-100v900zM100 1000h1000v-100h-1000v100z" />
    <glyph glyph-name="Oslash" unicode="&#xd8;" 
d="M0 1000h100v-1000h-100v1000zM100 100h1100v-100h-1100v100zM1100 1000h100v-900h-100v900zM100 1000h1000v-100h-1000v100zM1057 1198l143 2l-1072 -1402l-128 2z" />
    <glyph glyph-name="Ugrave" unicode="&#xd9;" 
d="M0 1000h100v-900h-100v900zM100 100h1100v-100h-1100v100zM1100 1000h100v-900h-100v900zM0 100h100v-100h-100v100zM300 1300l600 -100v-100l-600 100v100z" />
    <glyph glyph-name="Uacute" unicode="&#xda;" 
d="M0 1000h100v-900h-100v900zM100 100h1100v-100h-1100v100zM1100 1000h100v-900h-100v900zM0 100h100v-100h-100v100zM900 1200l-600 -100v100l600 100v-100z" />
    <glyph glyph-name="Ucircumflex" unicode="&#xdb;" 
d="M0 1000h100v-900h-100v900zM100 100h1100v-100h-1100v100zM1100 1000h100v-900h-100v900zM0 100h100v-100h-100v100zM300 1200l300 100v-100l-300 -100v100zM600 1300l300 -100v-100l-300 100v100z" />
    <glyph glyph-name="Udieresis" unicode="&#xdc;" 
d="M0 1000h100v-900h-100v900zM100 100h1100v-100h-1100v100zM1100 1000h100v-900h-100v900zM0 100h100v-100h-100v100zM300 1200h100v-100h-100v100zM800 1200h100v-100h-100v100z" />
    <glyph glyph-name="Yacute" unicode="&#xdd;" 
d="M0 1000h100l1 -966l-101 -34v1000zM1050 1003l150 -3l-1658 -1478h-141zM900 1200l-600 -100v100l600 100v-100z" />
    <glyph glyph-name="agrave" unicode="&#xe0;" 
d="M0 1000h1200v-100h-1200v100zM1100 900h100v-900h-100v900zM0 100h1100v-100h-1100v100zM0 363l100 -63v-200h-100v263zM747 902l153 -2l-800 -600l-100 63zM300 1300l600 -100v-100l-600 100v100z" />
    <glyph glyph-name="aacute" unicode="&#xe1;" 
d="M0 1000h1200v-100h-1200v100zM1100 900h100v-900h-100v900zM0 100h1100v-100h-1100v100zM0 363l100 -63v-200h-100v263zM747 902l153 -2l-800 -600l-100 63zM900 1200l-600 -100v100l600 100v-100z" />
    <glyph glyph-name="acircumflex" unicode="&#xe2;" 
d="M0 1000h1200v-100h-1200v100zM1100 900h100v-900h-100v900zM0 100h1100v-100h-1100v100zM0 363l100 -63v-200h-100v263zM747 902l153 -2l-800 -600l-100 63zM300 1200l300 100v-100l-300 -100v100zM600 1300l300 -100v-100l-300 100v100z" />
    <glyph glyph-name="atilde" unicode="&#xe3;" 
d="M0 1000h1200v-100h-1200v100zM1100 900h100v-900h-100v900zM0 100h1100v-100h-1100v100zM0 363l100 -63v-200h-100v263zM747 902l153 -2l-800 -600l-100 63zM300 1200l200 100v-100l-200 -100v100zM500 1300l200 -100v-100l-200 100v100zM700 1200l200 100v-100
l-200 -100v100z" />
    <glyph glyph-name="adieresis" unicode="&#xe4;" 
d="M0 1000h1200v-100h-1200v100zM1100 900h100v-900h-100v900zM0 100h1100v-100h-1100v100zM0 363l100 -63v-200h-100v263zM747 902l153 -2l-800 -600l-100 63zM300 1200h100v-100h-100v100zM800 1200h100v-100h-100v100z" />
    <glyph glyph-name="aring" unicode="&#xe5;" 
d="M0 1000h1200v-100h-1200v100zM1100 900h100v-900h-100v900zM0 100h1100v-100h-1100v100zM0 363l100 -63v-200h-100v263zM747 902l153 -2l-800 -600l-100 63zM460 1200h300v-100h-300v100zM660 1400h100v-200h-100v200zM460 1400h200v-100h-200v100zM460 1300h100v-100
h-100v100z" />
    <glyph glyph-name="ae" unicode="&#xe6;" horiz-adv-x="2400" 
d="M0 1000h1200v-100h-1200v100zM1100 900h100v-900h-100v900zM0 100h1100v-100h-1100v100zM0 363l100 -63v-200h-100v263zM747 902l153 -2l-800 -600l-100 63zM2300 0h-1200v100h1200v-100zM1200 100h-100v900h100v-900zM2300 900h-1100v100h1100v-100zM2300 637l-100 63
v200h100v-263zM1553 98l-153 2l800 600l100 -63z" />
    <glyph glyph-name="ccedilla" unicode="&#xe7;" 
d="M0 1000h1200v-100h-1200v100zM0 900h100v-900h-100v900zM100 100h1100v-100h-1100v100zM500 -200h100v200h-100v-200zM600 -100h200v-100h-200v100z" />
    <glyph glyph-name="egrave" unicode="&#xe8;" 
d="M1200 0h-1200v100h1200v-100zM100 100h-100v900h100v-900zM1200 900h-1100v100h1100v-100zM1200 637l-100 63v200h100v-263zM453 98l-153 2l800 600l100 -63zM300 1300l600 -100v-100l-600 100v100z" />
    <glyph glyph-name="eacute" unicode="&#xe9;" 
d="M1200 0h-1200v100h1200v-100zM100 100h-100v900h100v-900zM1200 900h-1100v100h1100v-100zM1200 637l-100 63v200h100v-263zM453 98l-153 2l800 600l100 -63zM900 1200l-600 -100v100l600 100v-100z" />
    <glyph glyph-name="ecircumflex" unicode="&#xea;" 
d="M1200 0h-1200v100h1200v-100zM100 100h-100v900h100v-900zM1200 900h-1100v100h1100v-100zM1200 637l-100 63v200h100v-263zM453 98l-153 2l800 600l100 -63zM300 1200l300 100v-100l-300 -100v100zM600 1300l300 -100v-100l-300 100v100z" />
    <glyph glyph-name="edieresis" unicode="&#xeb;" 
d="M1200 0h-1200v100h1200v-100zM100 100h-100v900h100v-900zM1200 900h-1100v100h1100v-100zM1200 637l-100 63v200h100v-263zM453 98l-153 2l800 600l100 -63zM300 1200h100v-100h-100v100zM800 1200h100v-100h-100v100z" />
    <glyph glyph-name="igrave" unicode="&#xec;" horiz-adv-x="200" 
d="M0 1000h100v-1000h-100v1000zM-200 1300l600 -100v-100l-600 100v100z" />
    <glyph glyph-name="iacute" unicode="&#xed;" horiz-adv-x="200" 
d="M0 1000h100v-1000h-100v1000zM400 1200l-600 -100v100l600 100v-100z" />
    <glyph glyph-name="eth" unicode="&#xee;" horiz-adv-x="200" 
d="M0 1000h100v-1000h-100v1000zM-243 1197l300 100v-100l-300 -100v100zM57 1297l300 -100v-100l-300 100v100z" />
    <glyph glyph-name="eth" unicode="&#xf0;" horiz-adv-x="200" 
d="M0 1000h100v-1000h-100v1000zM-243 1197l300 100v-100l-300 -100v100zM57 1297l300 -100v-100l-300 100v100z" />
    <glyph glyph-name="idieresis" unicode="&#xef;" horiz-adv-x="200" 
d="M0 1000h100v-1000h-100v1000zM-100 1200h100v-100h-100v100zM100 1200h100v-100h-100v100z" />
    <glyph glyph-name="ntilde" unicode="&#xf1;" 
d="M0 900h100v-900h-100v900zM0 1000h1200v-100h-1200v100zM1100 900h100v-900h-100v900zM300 1200l200 100v-100l-200 -100v100zM500 1300l200 -100v-100l-200 100v100zM700 1200l200 100v-100l-200 -100v100z" />
    <glyph glyph-name="ograve" unicode="&#xf2;" 
d="M0 1000h100v-1000h-100v1000zM100 100h1100v-100h-1100v100zM1100 1000h100v-900h-100v900zM100 1000h1000v-100h-1000v100zM300 1300l600 -100v-100l-600 100v100z" />
    <glyph glyph-name="oacute" unicode="&#xf3;" 
d="M0 1000h100v-1000h-100v1000zM100 100h1100v-100h-1100v100zM1100 1000h100v-900h-100v900zM100 1000h1000v-100h-1000v100zM900 1200l-600 -100v100l600 100v-100z" />
    <glyph glyph-name="ocircumflex" unicode="&#xf4;" 
d="M300 1200l300 100v-100l-300 -100v100zM600 1300l300 -100v-100l-300 100v100zM0 1000h100v-1000h-100v1000zM100 100h1100v-100h-1100v100zM1100 1000h100v-900h-100v900zM100 1000h1000v-100h-1000v100z" />
    <glyph glyph-name="otilde" unicode="&#xf5;" 
d="M0 1000h100v-1000h-100v1000zM100 100h1100v-100h-1100v100zM1100 1000h100v-900h-100v900zM100 1000h1000v-100h-1000v100zM300 1200l200 100v-100l-200 -100v100zM500 1300l200 -100v-100l-200 100v100zM700 1200l200 100v-100l-200 -100v100z" />
    <glyph glyph-name="odieresis" unicode="&#xf6;" 
d="M300 1200h100v-100h-100v100zM800 1200h100v-100h-100v100zM0 1000h100v-1000h-100v1000zM100 100h1100v-100h-1100v100zM1100 1000h100v-900h-100v900zM100 1000h1000v-100h-1000v100z" />
    <glyph glyph-name="oslash" unicode="&#xf8;" 
d="M0 1000h100v-1000h-100v1000zM100 100h1100v-100h-1100v100zM1100 1000h100v-900h-100v900zM100 1000h1000v-100h-1000v100zM1057 1198l143 2l-1072 -1402l-128 2z" />
    <glyph glyph-name="ugrave" unicode="&#xf9;" 
d="M0 1000h100v-900h-100v900zM100 100h1100v-100h-1100v100zM1100 1000h100v-900h-100v900zM0 100h100v-100h-100v100zM300 1300l600 -100v-100l-600 100v100z" />
    <glyph glyph-name="uacute" unicode="&#xfa;" 
d="M0 1000h100v-900h-100v900zM100 100h1100v-100h-1100v100zM1100 1000h100v-900h-100v900zM0 100h100v-100h-100v100zM900 1200l-600 -100v100l600 100v-100z" />
    <glyph glyph-name="ucircumflex" unicode="&#xfb;" 
d="M0 1000h100v-900h-100v900zM100 100h1100v-100h-1100v100zM1100 1000h100v-900h-100v900zM0 100h100v-100h-100v100zM300 1200l300 100v-100l-300 -100v100zM600 1300l300 -100v-100l-300 100v100z" />
    <glyph glyph-name="udieresis" unicode="&#xfc;" 
d="M0 1000h100v-900h-100v900zM100 100h1100v-100h-1100v100zM1100 1000h100v-900h-100v900zM0 100h100v-100h-100v100zM300 1200h100v-100h-100v100zM800 1200h100v-100h-100v100z" />
    <glyph glyph-name="yacute" unicode="&#xfd;" 
d="M0 1000h100l1 -966l-101 -34v1000zM1050 1003l150 -3l-1658 -1478h-141zM900 1200l-600 -100v100l600 100v-100z" />
    <glyph glyph-name="thorn" unicode="&#xfe;" 
d="M0 1100h100v-1300h-100v1300zM0 1200h100v-100h-100v100zM100 1000h1100v-100h-1100v100zM1100 900h100v-900h-100v900zM100 100h900v-100h-900v100zM1000 100h100v-100h-100v100z" />
    <glyph glyph-name="ydieresis" unicode="&#xff;" 
d="M0 1000h100l1 -933l-101 -67v1000zM1050 1003l150 -3l-1658 -1478h-141zM300 1200h100v-100h-100v100zM800 1200h100v-100h-100v100z" />
    <glyph glyph-name="oe" unicode="&#x153;" horiz-adv-x="2400" 
d="M0 1000h100v-1000h-100v1000zM100 1000h1100v-100h-1100v100zM1100 900h100v-900h-100v900zM100 100h1000v-100h-1000v100zM2300 0h-1200v100h1200v-100zM1200 100h-100v900h100v-900zM2300 900h-1100v100h1100v-100zM2300 637l-100 63v200h100v-263zM1553 98l-153 2
l800 600l100 -63z" />
    <glyph glyph-name="quoteleft" unicode="&#x2018;" horiz-adv-x="300" 
d="M0 1000l200 200v-400h-200v200z" />
    <glyph glyph-name="quoteright" unicode="&#x2019;" horiz-adv-x="300" 
d="M200 1000l-200 -200v400h200v-200z" />
    <glyph glyph-name="quotedblleft" unicode="&#x201c;" horiz-adv-x="600" 
d="M0 1000l200 200v-400h-200v200zM300 1000l200 200v-400h-200v200z" />
    <glyph glyph-name="quotedblright" unicode="&#x201d;" horiz-adv-x="600" 
d="M500 1000l-200 -200v400h200v-200zM200 1000l-200 -200v400h200v-200z" />
    <glyph glyph-name="Euro" unicode="&#x20ac;" horiz-adv-x="1100" 
d="M200 1100h800v-100h-800v100zM200 1000h100v-1000h-100v1000zM300 100h700v-100h-700v100zM0 700h700v-100h-700v100zM0 500h700v-100h-700v100z" />
    <glyph glyph-name="NULL" horiz-adv-x="0" 
 />
    <glyph glyph-name="nonmarkingreturn" horiz-adv-x="600" 
 />
    <glyph glyph-name="glyph32" 
d="M1200 900h-1200v100h1200v-100zM1200 600l-100 -100v400h100v-300zM100 0h-100v400l100 100v-500zM100 0h1100h-1100zM1200 0h-1100v100h1100v-100zM1200 600v-100l-1200 -100v100z" />
    <glyph glyph-name="glyph35" 
d="M0 1000h1200v-100h-1200v100zM0 900h100v-400l-100 100v300zM1100 500l100 -100v-400h-100v500zM0 0h1100v0h-1100zM0 100h1100v-100h-1100v100zM1200 500v-100l-1200 100v100zM175 1137h269v-67h-269v67z" />
    <glyph glyph-name="glyph40" horiz-adv-x="1240" 
 />
    <glyph glyph-name="glyph52" horiz-adv-x="1240" 
 />
    <glyph glyph-name="glyph67" horiz-adv-x="1240" 
d="M0 1000h1200v-100h-1200v100zM0 900h100v-900h-100v900zM100 100h1100v-100h-1100v100z" />
    <glyph glyph-name="glyph77" horiz-adv-x="1240" 
d="M0 1000h100v-1000h-100v1000zM100 100h1100v-100h-1100v100zM1100 1000h100v-900h-100v900zM100 1000h1000v-100h-1000v100z" />
    <glyph glyph-name="glyph78" horiz-adv-x="1240" 
 />
  </font>
</defs>
</svg>
